<?xml version="1.0" encoding="utf-8"?>
<svg xmlns="http://www.w3.org/2000/svg" width="1200" height="900" viewBox="0 0 1200 900">
  <defs>
    <style>
      .bg { fill: #f5f7fa; }
      .sidebar { fill: #1d2b3a; }
      .sidebar-text { fill: #a0aec0; font-family: 'Microsoft YaHei', sans-serif; font-size: 14px; }
      .sidebar-active { fill: #2563eb; rx: 6; }
      .sidebar-active-text { fill: #ffffff; font-family: 'Microsoft YaHei', sans-serif; font-size: 14px; font-weight: bold; }
      .header { fill: #ffffff; }
      .header-text { fill: #1a202c; font-family: 'Microsoft YaHei', sans-serif; font-size: 18px; font-weight: bold; }
      .card { fill: #ffffff; rx: 12; filter: drop-shadow(0 1px 3px rgba(0,0,0,0.1)); }
      .stat-card { fill: #ffffff; rx: 10; filter: drop-shadow(0 1px 2px rgba(0,0,0,0.08)); }
      .title { fill: #1a202c; font-family: 'Microsoft YaHei', sans-serif; font-size: 16px; font-weight: bold; }
      .desc { fill: #718096; font-family: 'Microsoft YaHei', sans-serif; font-size: 13px; }
      .label { fill: #4a5568; font-family: 'Microsoft YaHei', sans-serif; font-size: 12px; }
      .stat-num { fill: #1a202c; font-family: 'Microsoft YaHei', sans-serif; font-size: 28px; font-weight: bold; }
      .stat-label { fill: #718096; font-family: 'Microsoft YaHei', sans-serif; font-size: 12px; }
      .file-name { fill: #1a202c; font-family: 'Microsoft YaHei', sans-serif; font-size: 13px; }
      .file-info { fill: #718096; font-family: 'Microsoft YaHei', sans-serif; font-size: 12px; }
      .progress-bg { fill: #e2e8f0; rx: 4; }
      .divider { stroke: #e2e8f0; stroke-width: 1; }
      .tab-active { fill: #2563eb; font-family: 'Microsoft YaHei', sans-serif; font-size: 13px; font-weight: bold; }
      .tab-inactive { fill: #718096; font-family: 'Microsoft YaHei', sans-serif; font-size: 13px; }
    </style>
  </defs>
  <rect class="bg" width="1200" height="900" />
  <!-- Sidebar -->
  <rect class="sidebar" x="0" y="0" width="220" height="900" />
  <text x="30" y="40" fill="#ffffff" font-family="'Microsoft YaHei', sans-serif" font-size="20" font-weight="bold">ASR 任务管理器</text>
  <line x1="20" y1="55" x2="200" y2="55" stroke="#2d3e50" stroke-width="1" />
  <text class="sidebar-text" x="48" y="95">文件上传</text>
  <rect class="sidebar-active" x="12" y="105" width="196" height="40" />
  <text class="sidebar-active-text" x="48" y="130">任务列表</text>
  <text class="sidebar-text" x="48" y="175">系统监控</text>
  <text class="sidebar-text" x="48" y="210">设置中心</text>
  <line x1="20" y1="840" x2="200" y2="840" stroke="#2d3e50" stroke-width="1" />
  <text class="sidebar-text" x="30" y="870">用户：管理员</text>
  <!-- Header -->
  <rect class="header" x="220" y="0" width="980" height="60" />
  <text class="header-text" x="250" y="38">任务列表</text>
  <line class="divider" x1="220" y1="60" x2="1200" y2="60" />
  <!-- Stats Row -->
  <!-- Total -->
  <rect class="stat-card" x="250" y="76" width="150" height="80" />
  <text class="stat-label" x="274" y="100">任务总数</text>
  <text class="stat-num" x="274" y="138">156</text>
  <!-- In Progress -->
  <rect class="stat-card" x="416" y="76" width="150" height="80" />
  <text class="stat-label" x="440" y="100">进行中</text>
  <text fill="#2563eb" font-family="'Microsoft YaHei', sans-serif" font-size="28" font-weight="bold" x="440" y="138">8</text>
  <!-- Queued -->
  <rect class="stat-card" x="582" y="76" width="150" height="80" />
  <text class="stat-label" x="606" y="100">排队中</text>
  <text fill="#d69e2e" font-family="'Microsoft YaHei', sans-serif" font-size="28" font-weight="bold" x="606" y="138">12</text>
  <!-- Completed -->
  <rect class="stat-card" x="748" y="76" width="150" height="80" />
  <text class="stat-label" x="772" y="100">已完成</text>
  <text fill="#38a169" font-family="'Microsoft YaHei', sans-serif" font-size="28" font-weight="bold" x="772" y="138">132</text>
  <!-- Failed -->
  <rect class="stat-card" x="914" y="76" width="150" height="80" />
  <text class="stat-label" x="938" y="100">失败</text>
  <text fill="#e53e3e" font-family="'Microsoft YaHei', sans-serif" font-size="28" font-weight="bold" x="938" y="138">4</text>
  <!-- Filter bar -->
  <rect class="card" x="250" y="172" width="920" height="50" />
  <!-- Tabs -->
  <text class="tab-active" x="274" y="202">全部 (156)</text>
  <rect fill="#2563eb" x="274" y="210" width="60" height="2" />
  <text class="tab-inactive" x="360" y="202">进行中 (8)</text>
  <text class="tab-inactive" x="446" y="202">排队中 (12)</text>
  <text class="tab-inactive" x="532" y="202">已完成 (132)</text>
  <text class="tab-inactive" x="626" y="202">失败 (4)</text>
  <!-- Search -->
  <rect fill="#f7fafc" stroke="#cbd5e0" x="940" y="183" width="210" height="30" rx="6" />
  <text class="file-info" x="955" y="203">搜索文件名 / 任务ID...</text>
  <!-- Task List Card -->
  <rect class="card" x="250" y="236" width="920" height="640" />
  <!-- Table Header -->
  <rect fill="#f7fafc" x="268" y="250" width="884" height="32" rx="4" />
  <text class="label" x="286" y="271">任务ID</text>
  <text class="label" x="380" y="271">文件名</text>
  <text class="label" x="600" y="271">时长</text>
  <text class="label" x="670" y="271">状态</text>
  <text class="label" x="780" y="271">进度</text>
  <text class="label" x="920" y="271">ETA</text>
  <text class="label" x="1000" y="271">创建时间</text>
  <text class="label" x="1110" y="271">操作</text>
  <!-- Row 1 - Transcribing -->
  <rect fill="#ffffff" x="268" y="290" width="884" height="52" />
  <text class="file-info" x="286" y="320">01J8K2M</text>
  <text class="file-name" x="380" y="313">会议录音-2026-02-25.wav</text>
  <text class="file-info" x="380" y="328">356MB · WAV · 16kHz</text>
  <text class="file-info" x="600" y="320">02:15:30</text>
  <rect fill="#bee3f8" x="670" y="307" width="64" height="22" rx="4" />
  <text fill="#2a4365" font-family="'Microsoft YaHei', sans-serif" font-size="11" x="702" y="322" text-anchor="middle">进行中</text>
  <rect class="progress-bg" x="780" y="312" width="100" height="8" />
  <rect fill="#2563eb" x="780" y="312" width="68" height="8" rx="4" />
  <text class="file-info" x="885" y="320">68%</text>
  <text fill="#2563eb" font-family="'Microsoft YaHei', sans-serif" font-size="12" x="920" y="320">~12min</text>
  <text class="file-info" x="1000" y="320">10:30</text>
  <text fill="#2563eb" font-family="'Microsoft YaHei', sans-serif" font-size="12" x="1110" y="320" style="cursor:pointer">详情</text>
  <line class="divider" x1="268" y1="342" x2="1152" y2="342" />
  <!-- Row 2 - Transcribing -->
  <rect fill="#ffffff" x="268" y="342" width="884" height="52" />
  <text class="file-info" x="286" y="372">01J8K3N</text>
  <text class="file-name" x="380" y="365">客户访谈-A组-0226.mp3</text>
  <text class="file-info" x="380" y="380">128MB · MP3 · 44.1kHz</text>
  <text class="file-info" x="600" y="372">01:05:12</text>
  <rect fill="#bee3f8" x="670" y="359" width="64" height="22" rx="4" />
  <text fill="#2a4365" font-family="'Microsoft YaHei', sans-serif" font-size="11" x="702" y="374" text-anchor="middle">进行中</text>
  <rect class="progress-bg" x="780" y="364" width="100" height="8" />
  <rect fill="#2563eb" x="780" y="364" width="42" height="8" rx="4" />
  <text class="file-info" x="885" y="372">42%</text>
  <text fill="#2563eb" font-family="'Microsoft YaHei', sans-serif" font-size="12" x="920" y="372">~25min</text>
  <text class="file-info" x="1000" y="372">10:32</text>
  <text fill="#2563eb" font-family="'Microsoft YaHei', sans-serif" font-size="12" x="1110" y="372">详情</text>
  <line class="divider" x1="268" y1="394" x2="1152" y2="394" />
  <!-- Row 3 - Queued -->
  <rect fill="#ffffff" x="268" y="394" width="884" height="52" />
  <text class="file-info" x="286" y="424">01J8K4P</text>
  <text class="file-name" x="380" y="417">培训视频-片段3.mp4</text>
  <text class="file-info" x="380" y="432">480MB · MP4 · H.264</text>
  <text class="file-info" x="600" y="424">00:45:00</text>
  <rect fill="#fefcbf" x="670" y="411" width="64" height="22" rx="4" />
  <text fill="#975a16" font-family="'Microsoft YaHei', sans-serif" font-size="11" x="702" y="426" text-anchor="middle">排队中</text>
  <rect class="progress-bg" x="780" y="416" width="100" height="8" />
  <rect fill="#d69e2e" x="780" y="416" width="18" height="8" rx="4" />
  <text class="file-info" x="885" y="424">18%</text>
  <text fill="#d69e2e" font-family="'Microsoft YaHei', sans-serif" font-size="12" x="920" y="424">~40min</text>
  <text class="file-info" x="1000" y="424">10:33</text>
  <text fill="#e53e3e" font-family="'Microsoft YaHei', sans-serif" font-size="12" x="1110" y="424">取消</text>
  <line class="divider" x1="268" y1="446" x2="1152" y2="446" />
  <!-- Row 4 - Completed -->
  <rect fill="#ffffff" x="268" y="446" width="884" height="52" />
  <text class="file-info" x="286" y="476">01J8K1L</text>
  <text class="file-name" x="380" y="469">晨会录音-2026-02-24.wav</text>
  <text class="file-info" x="380" y="484">520MB · WAV · 16kHz</text>
  <text class="file-info" x="600" y="476">03:20:15</text>
  <rect fill="#c6f6d5" x="670" y="463" width="64" height="22" rx="4" />
  <text fill="#276749" font-family="'Microsoft YaHei', sans-serif" font-size="11" x="702" y="478" text-anchor="middle">已完成</text>
  <rect class="progress-bg" x="780" y="468" width="100" height="8" />
  <rect fill="#38a169" x="780" y="468" width="100" height="8" rx="4" />
  <text class="file-info" x="885" y="476">100%</text>
  <text class="file-info" x="920" y="476">-</text>
  <text class="file-info" x="1000" y="476">09:15</text>
  <text fill="#2563eb" font-family="'Microsoft YaHei', sans-serif" font-size="12" x="1110" y="476">下载</text>
  <line class="divider" x1="268" y1="498" x2="1152" y2="498" />
  <!-- Row 5 - Completed -->
  <rect fill="#ffffff" x="268" y="498" width="884" height="52" />
  <text class="file-info" x="286" y="528">01J8K0K</text>
  <text class="file-name" x="380" y="521">产品评审-Sprint28.mp3</text>
  <text class="file-info" x="380" y="536">86MB · MP3 · 44.1kHz</text>
  <text class="file-info" x="600" y="528">00:52:40</text>
  <rect fill="#c6f6d5" x="670" y="515" width="64" height="22" rx="4" />
  <text fill="#276749" font-family="'Microsoft YaHei', sans-serif" font-size="11" x="702" y="530" text-anchor="middle">已完成</text>
  <rect class="progress-bg" x="780" y="520" width="100" height="8" />
  <rect fill="#38a169" x="780" y="520" width="100" height="8" rx="4" />
  <text class="file-info" x="885" y="528">100%</text>
  <text class="file-info" x="920" y="528">-</text>
  <text class="file-info" x="1000" y="528">08:40</text>
  <text fill="#2563eb" font-family="'Microsoft YaHei', sans-serif" font-size="12" x="1110" y="528">下载</text>
  <line class="divider" x1="268" y1="550" x2="1152" y2="550" />
  <!-- Row 6 - Failed -->
  <rect fill="#fff5f5" x="268" y="550" width="884" height="52" />
  <text class="file-info" x="286" y="580">01J8J9J</text>
  <text class="file-name" x="380" y="573">损坏样本.wav</text>
  <text class="file-info" x="380" y="588">2MB · WAV · 异常</text>
  <text class="file-info" x="600" y="580">-</text>
  <rect fill="#fed7d7" x="670" y="567" width="64" height="22" rx="4" />
  <text fill="#9b2c2c" font-family="'Microsoft YaHei', sans-serif" font-size="11" x="702" y="582" text-anchor="middle">失败</text>
  <text class="file-info" x="780" y="580">错误：音频解码失败</text>
  <text class="file-info" x="1000" y="580">08:20</text>
  <text fill="#2563eb" font-family="'Microsoft YaHei', sans-serif" font-size="12" x="1110" y="580">重试</text>
  <!-- Pagination -->
  <text class="file-info" x="286" y="850">共 156 条，每页 20 条</text>
  <rect fill="#ffffff" stroke="#cbd5e0" x="1040" y="834" width="30" height="28" rx="4" />
  <text class="file-info" x="1055" y="853" text-anchor="middle">‹</text>
  <rect fill="#2563eb" x="1078" y="834" width="30" height="28" rx="4" />
  <text fill="#ffffff" font-family="'Microsoft YaHei', sans-serif" font-size="12" x="1093" y="853" text-anchor="middle">1</text>
  <rect fill="#ffffff" stroke="#cbd5e0" x="1116" y="834" width="30" height="28" rx="4" />
  <text class="file-info" x="1131" y="853" text-anchor="middle">2</text>
  <rect fill="#ffffff" stroke="#cbd5e0" x="1152" y="834" width="30" height="28" rx="4" />
  <text class="file-info" x="1167" y="853" text-anchor="middle">›</text>
  <text class="desc" x="710" y="890" text-anchor="middle">ASR 任务管理器 · 列表页 · UI Mockup v1.0</text>
</svg>